/* XPM */
static char * mysql_konzol_16_xpm[] = {
"16 16 4 1",
" 	c None",
".	c #000000",
"+	c #FFFFFF",
"@	c #808080",
"                ",
"                ",
" .............. ",
".++++++++++++++.",
".++++++++++++++.",
".+@@@++@@+++@++.",
".+@+++@++@++@++.",
".+@@++@++@++@++.",
".+++@+@++@++@++.",
".+++@+@++@++@++.",
".+@@@++@@+++@@+.",
".++++++++@@++++.",
".++++++++++++++.",
" .............. ",
"                ",
"                "};
